<?xml version="1.0" standalone="no"?>
<!DOCTYPE svg PUBLIC "-//W3C//DTD SVG 1.1//EN" "http://www.w3.org/Graphics/SVG/1.1/DTD/svg11.dtd" >
<svg>
<metadata>
Created by FontForge 20120731 at Mon Oct 27 05:53:04 2014
 By root
Copyright 1999 Double Alex Font Studio. For "Playboy" Russian edition. Confidential version. 
</metadata>
<defs>
<font id="PlumbC-Bold" horiz-adv-x="543" >
  <font-face 
    font-family="PlumbC"
    font-weight="700"
    font-stretch="normal"
    units-per-em="1000"
    panose-1="2 0 5 3 4 0 0 2 0 4"
    ascent="800"
    descent="-200"
    x-height="521"
    cap-height="712"
    bbox="-43 -197 1158 927"
    underline-thickness="50"
    underline-position="-50"
    unicode-range="U+0020-2265"
  />
<missing-glyph horiz-adv-x="1000" 
 />
    <glyph glyph-name=".notdef" horiz-adv-x="1000" 
 />
    <glyph glyph-name=".null" horiz-adv-x="0" 
 />
    <glyph glyph-name="nonmarkingreturn" horiz-adv-x="232" 
 />
    <glyph glyph-name="space" unicode=" " horiz-adv-x="232" 
 />
    <glyph glyph-name="numbersign" unicode="#" horiz-adv-x="691" 
d="M302 420l-17 -108h116l16 108h-115zM554 420l-16 -108h69v-122h-89l-30 -190h-137l31 190h-116l-30 -190h-137l30 190h-69v122h89l16 108h-70v121h89l28 177h137l-28 -177h116l28 177h136l-27 -177h69v-121h-89z" />
    <glyph glyph-name="dollar" unicode="$" horiz-adv-x="619" 
d="M342 120q49 8 71 28.5t22 58.5q0 24 -7 39t-19.5 24t-29.5 14t-37 8v-172zM268 595q-87 -17 -87 -87q0 -65 87 -80v167zM380 416q99 -16 145 -64.5t46 -139.5q0 -83 -49 -136q-35 -38 -75.5 -54t-90.5 -24v-112h-101v108q-26 1 -45.5 3.5t-35.5 5.5t-30.5 8t-30.5 12
q-14 6 -24.5 11.5t-21 13t-22 17t-26.5 23.5l90 90q19 -17 30 -24t28 -15q12 -5 22.5 -8.5t21.5 -6t25 -4t32 -2.5v181l-32 4q-92 11 -140.5 61.5t-48.5 135.5t51 142q33 37 71.5 51.5t85.5 22.5v90h101v-89q21 -2 36.5 -4t28.5 -5t24.5 -7t25.5 -10q12 -5 21 -10
t18.5 -11.5t19.5 -14.5t23 -20l-88 -87q-14 12 -23 17.5t-22 11.5q-17 8 -34.5 12t-43.5 7v-174z" />
    <glyph glyph-name="percent" unicode="%" horiz-adv-x="848" 
d="M146 486q0 -57 51 -57t51 57v91q0 57 -51 57t-51 -57v-91zM600 135q0 -57 51 -57t51 57v91q0 57 -51 57t-51 -57v-91zM342 482q0 -62 -39.5 -99.5t-105.5 -37.5t-105.5 37t-39.5 100v99q0 62 39.5 99.5t105.5 37.5t105.5 -37.5t39.5 -99.5v-99zM307 0h-102l337 712h102z
M796 131q0 -62 -39.5 -99.5t-105.5 -37.5t-105.5 37t-39.5 100v99q0 62 39.5 99.5t105.5 37.5t105.5 -37.5t39.5 -99.5v-99z" />
    <glyph glyph-name="ampersand" unicode="&#x26;" horiz-adv-x="721" 
d="M258 321q-20 -14 -29.5 -22.5t-18.5 -19.5q-24 -27 -24 -66q0 -45 31 -73t79 -28q32 0 56 11t48 31zM325 489q41 27 41 61q0 26 -16.5 41.5t-42.5 15.5t-42.5 -15.5t-16.5 -40.5q0 -9 2 -16.5t7 -16.5t14.5 -21t23.5 -28zM531 0l-52 62q-21 -17 -32.5 -24.5t-25.5 -15.5
q-55 -28 -129 -28q-109 0 -170.5 55t-61.5 154q0 36 9.5 64.5t31.5 56.5q8 10 16 19t17.5 17.5t22.5 18.5t31 22q-40 45 -55.5 79t-15.5 74q0 37 13.5 67t38.5 51.5t59.5 33.5t76.5 12q41 0 75 -12t58 -34t37.5 -52t13.5 -67q0 -40 -16 -68t-57 -59q-29 -23 -51 -37
l120 -142q9 14 13 22t9 20q6 18 9 36t5 47h123q-2 -27 -4.5 -47t-5.5 -36t-8 -30.5t-11 -30.5q-9 -22 -18 -37t-29 -40l128 -151h-165z" />
    <glyph glyph-name="quotesingle" unicode="'" horiz-adv-x="259" 
d="M68 501v211h123v-211h-123z" />
    <glyph glyph-name="parenleft" unicode="(" horiz-adv-x="336" 
d="M194 -94l-24 24t-17.5 18.5t-13.5 15t-12 14.5q-14 17 -23 33.5t-14 35t-7.5 40.5t-2.5 51v436q0 45 6 74t20 55q7 13 17.5 27t22.5 27.5t24.5 25.5t23.5 23l87 -87q-18 -18 -25.5 -25t-14.5 -17q-19 -23 -25 -46t-6 -63v-424q0 -56 15 -84q11 -20 26 -36t30 -31z" />
    <glyph glyph-name="parenright" unicode=")" horiz-adv-x="336" 
d="M142 806l34.5 -34.5t32.5 -37.5q13 -17 22.5 -33.5t14.5 -35t7.5 -41t2.5 -50.5v-436q0 -31 -2.5 -54.5t-9.5 -44t-19.5 -40t-32.5 -41.5q-9 -11 -18.5 -20.5l-31.5 -31.5l-88 88l9 9q19 18 31 33t19 30.5t9.5 34t2.5 43.5v424q0 57 -15 84q-11 20 -26 35.5t-30 30.5z
" />
    <glyph glyph-name="asterisk" unicode="*" horiz-adv-x="494" 
d="M394 381l-105 66l4 -125h-92l5 125l-106 -66l-45 79l110 58l-110 58l45 80l106 -67l-5 125h92l-4 -125l105 67l46 -80l-111 -58l111 -58z" />
    <glyph glyph-name="plus" unicode="+" 
d="M333 216v-160h-122v160h-161v122h161v160h122v-160h160v-122h-160z" />
    <glyph glyph-name="comma" unicode="," horiz-adv-x="279" 
d="M16 -121l63 267h137l-90 -267h-110z" />
    <glyph glyph-name="hyphen" unicode="-" horiz-adv-x="426" 
d="M59 225v121h308v-121h-308z" />
    <glyph glyph-name="hyphen" unicode="&#xad;" horiz-adv-x="426" 
d="M59 225v121h308v-121h-308z" />
    <glyph glyph-name="period" unicode="." horiz-adv-x="279" 
d="M227 85q0 -37 -25.5 -62.5t-62.5 -25.5q-36 0 -61.5 25.5t-25.5 61.5t25.5 61.5t61.5 25.5q18 0 34 -7t28 -19t19 -27.5t7 -32.5z" />
    <glyph glyph-name="slash" unicode="/" horiz-adv-x="403" 
d="M122 -74h-122l285 860h122z" />
    <glyph glyph-name="zero" unicode="0" 
d="M185 207q0 -44 23.5 -70t63.5 -26q39 0 62.5 26t23.5 70v297q0 45 -23.5 71t-62.5 26t-63 -26.5t-24 -70.5v-297zM488 206q0 -47 -16 -86t-44.5 -67t-68 -43.5t-87.5 -15.5t-88 15.5t-68.5 43.5t-44.5 67t-16 86v300q0 47 16 86t44.5 67t68.5 43.5t88 15.5t87.5 -15.5
t68 -43.5t44.5 -67t16 -86v-300z" />
    <glyph glyph-name="one" unicode="1" 
d="M248 0v572l-145 -126v140l145 126h130v-712h-130z" />
    <glyph glyph-name="two" unicode="2" 
d="M59 0v117l266 309q20 23 28.5 43t8.5 43q0 42 -23 65.5t-63 23.5q-83 0 -87 -91h-130q2 32 5 49.5t11 36.5q25 58 77.5 90t124.5 32q48 0 87.5 -15t68 -42t44 -65t15.5 -84q0 -23 -3.5 -41.5t-12 -37t-23.5 -39t-37 -46.5l-199 -231h275v-117h-433z" />
    <glyph glyph-name="three" unicode="3" 
d="M403 368q20 -11 29.5 -19t20.5 -19q42 -48 42 -124q0 -48 -16 -87.5t-45.5 -67t-71.5 -42.5t-94 -15t-95.5 16t-73.5 45q-32 32 -43 68.5t-14 80.5h130q6 -93 97 -93q45 0 70.5 26.5t25.5 72.5t-26.5 72t-73.5 26h-19v113h19q43 0 66.5 23.5t23.5 65.5t-24 66.5t-63 24.5
q-79 0 -88 -86h-130q2 31 5.5 47.5t11.5 35.5q24 57 77.5 88.5t123.5 31.5q48 0 87.5 -15t68.5 -42.5t45 -65t16 -82.5q0 -67 -37 -110q-9 -11 -18 -17.5t-27 -17.5z" />
    <glyph glyph-name="four" unicode="4" 
d="M447 101v-101h-125v101h-291v123l244 488h142l-244 -488h149v133h125v-133h65v-123h-65z" />
    <glyph glyph-name="five" unicode="5" 
d="M190 442q43 36 109 36q83 0 131 -48q34 -33 49 -77.5t15 -113.5q0 -68 -14.5 -111t-48.5 -76q-59 -58 -157 -58q-50 0 -90.5 14.5t-68.5 42.5q-34 34 -47 80q-5 15 -7 28.5t-4 39.5h130q8 -47 28 -67.5t59 -20.5q48 0 69 30.5t21 97.5t-21 98t-66 31q-64 0 -86 -58h-119
v402h406v-117h-288v-153z" />
    <glyph glyph-name="six" unicode="6" 
d="M362 213q0 48 -25 77t-67 29t-67 -28t-25 -76t25 -76t67 -28t67 28t25 74zM252 418q14 5 25.5 7t26.5 2q40 0 74.5 -16t60 -44.5t39.5 -67t14 -84.5q0 -50 -16 -90.5t-45.5 -69.5t-70.5 -45t-91 -16t-90.5 15.5t-69.5 44t-45 68.5t-16 89q0 21 3 40t9.5 41t18 49t29.5 63
l150 308h142z" />
    <glyph glyph-name="seven" unicode="7" 
d="M272 0h-141l231 595h-188v-112h-124v229h453v-117z" />
    <glyph glyph-name="eight" unicode="8" 
d="M370 207q0 43 -28 72t-70 29t-70 -28.5t-28 -70.5t28 -70t70 -28q20 0 38 7.5t31.5 20.5t21 30.5t7.5 37.5zM360 509q0 40 -25 66t-63 26t-63.5 -26t-25.5 -64q0 -39 25.5 -64.5t63.5 -25.5t63 25t25 63zM410 367q22 -16 32.5 -25.5t21.5 -23.5q36 -48 36 -113
q0 -47 -16.5 -86t-46.5 -67t-72 -43t-93 -15t-93 15t-72 43t-46.5 67t-16.5 86q0 67 37 114q10 13 20.5 23t31.5 25q-13 9 -21.5 16.5t-15.5 15t-12 16t-11 19.5q-20 38 -20 82t16.5 81t45.5 64t69 42t88 15q47 0 87 -15t69 -42t45.5 -64t16.5 -80q0 -45 -20 -83
q-11 -21 -23 -34.5t-37 -32.5z" />
    <glyph glyph-name="nine" unicode="9" 
d="M365 495q0 49 -25 77.5t-67 28.5t-67 -28t-25 -76t25 -76t67 -28t67 28t25 74zM292 294q-13 -5 -25 -7t-27 -2q-41 0 -75.5 16t-60 44.5t-39.5 67t-14 84.5q0 49 16 90t45 70t70 45t91 16t91 -15.5t70 -44t45 -69t16 -89.5q0 -20 -3 -39.5t-9.5 -42t-18 -49.5t-28.5 -61
l-151 -308h-141z" />
    <glyph glyph-name="colon" unicode=":" horiz-adv-x="279" 
d="M227 86q0 -38 -25 -63.5t-62 -25.5q-36 0 -61.5 25.5t-25.5 61.5t25.5 61.5t61.5 25.5q18 0 33.5 -7t27.5 -18.5t19 -27t7 -32.5zM227 413q0 -37 -25 -62.5t-62 -25.5q-36 0 -61.5 25.5t-25.5 61.5t25.5 62t61.5 26q18 0 33.5 -7t27.5 -19t19 -27.5t7 -33.5z" />
    <glyph glyph-name="semicolon" unicode=";" horiz-adv-x="279" 
d="M16 -121l63 267h137l-90 -267h-110zM227 413q0 -37 -25 -62.5t-62 -25.5q-36 0 -61.5 25.5t-25.5 61.5t25.5 62t61.5 26q18 0 33.5 -7t27.5 -19t19 -27.5t7 -33.5z" />
    <glyph glyph-name="semicolon" unicode="&#x37e;" horiz-adv-x="279" 
d="M16 -121l63 267h137l-90 -267h-110zM227 413q0 -37 -25 -62.5t-62 -25.5q-36 0 -61.5 25.5t-25.5 61.5t25.5 62t61.5 26q18 0 33.5 -7t27.5 -19t19 -27.5t7 -33.5z" />
    <glyph glyph-name="less" unicode="&#x3c;" 
d="M33 224v126l476 188v-129l-335 -122l335 -121v-130z" />
    <glyph glyph-name="equal" unicode="=" 
d="M50 116v122h443v-122h-443zM50 333v122h443v-122h-443z" />
    <glyph glyph-name="greater" unicode="&#x3e;" 
d="M33 36v130l335 121l-335 122v129l476 -188v-126z" />
    <glyph glyph-name="question" unicode="?" horiz-adv-x="523" 
d="M360 76q0 -33 -23 -56t-56 -23q-32 0 -55 23t-23 55t23 55.5t55 23.5t55.5 -23t23.5 -55zM66 518q2 30 4.5 46.5t10.5 34.5q24 56 75.5 87.5t119.5 31.5q46 0 84.5 -15t66.5 -41t44 -62.5t16 -79.5q0 -34 -11.5 -63t-37.5 -64l-74 -98q-8 -11 -13 -25t-5 -26v-21h-130v30
q0 30 8.5 54t29.5 50l74 95q29 38 29 70q0 35 -23 57t-58 22q-77 0 -80 -83h-130z" />
    <glyph glyph-name="at" unicode="@" horiz-adv-x="758" 
d="M576 230q0 69 -19.5 99t-64.5 30q-42 0 -61.5 -30.5t-19.5 -97.5q0 -68 19 -98.5t63 -30.5q43 0 63 31t20 97zM579 0v46q-17 -17 -27.5 -25t-24.5 -15q-29 -12 -67 -12q-80 0 -127 50q-14 15 -23 31.5t-14.5 39t-7.5 53t-2 73.5q0 34 2.5 60.5t8 47.5t14 37t21.5 30
q48 51 127 51q19 0 36 -2.5t33 -10.5q14 -6 23.5 -13.5t24.5 -22.5v45q0 67 -34.5 102t-100.5 35h-124q-135 0 -135 -137v-289q0 -18 2 -31t6.5 -24.5t13 -21.5t22.5 -22l-90 -90q-27 25 -39.5 40.5t-21.5 35.5q-9 21 -13.5 46.5t-4.5 59.5v299q0 129 60.5 189.5t189.5 60.5
h144q129 0 189 -60t60 -190v-466h-121z" />
    <glyph glyph-name="A" unicode="A" horiz-adv-x="638" 
d="M322 502l-90 -259h177zM488 0l-42 126h-253l-43 -126h-145l259 712h109l260 -712h-145z" />
    <glyph glyph-name="B" unicode="B" horiz-adv-x="658" 
d="M367 124q43 0 68 23.5t25 64.5t-25 64t-68 23h-145v-175h145zM358 424q43 0 67.5 22t24.5 60t-24.5 60t-67.5 22h-136v-164h136zM501 365q21 -11 32 -19t22 -19q23 -25 33.5 -55t10.5 -68q0 -47 -15 -84.5t-43.5 -64t-69 -41t-90.5 -14.5h-298v712h286q50 0 91 -14
t69.5 -39.5t44 -61.5t15.5 -81q0 -102 -88 -151z" />
    <glyph glyph-name="C" unicode="C" horiz-adv-x="562" 
d="M519 76q-15 -14 -26 -23.5t-21.5 -16.5t-21 -12.5t-23.5 -10.5q-23 -9 -49 -14t-55 -5q-118 0 -194 78q-26 27 -40.5 58t-21 66t-7.5 75t-1 85v29q0 53 3 91.5t11 68t21.5 52t34.5 43.5q76 78 193 78q60 0 105 -19q25 -11 44 -23t48 -40l-92 -92q-29 29 -51.5 39.5
t-53.5 10.5q-56 0 -89 -37q-13 -15 -20 -35.5t-10.5 -44.5t-4 -50t-0.5 -51v-38q0 -42 1.5 -71.5t5.5 -50.5t10.5 -35t17.5 -26q33 -37 89 -37q31 0 53.5 10.5t51.5 39.5z" />
    <glyph glyph-name="D" unicode="D" horiz-adv-x="659" 
d="M327 124q69 0 104 44q9 12 15 26t9 36.5t4.5 56t1.5 83.5q0 40 -1.5 68t-5 47.5t-9 33.5t-14.5 25q-35 44 -104 44h-105v-464h105zM340 712q120 0 188 -68q19 -20 33 -41.5t22.5 -48t12.5 -59t4 -73.5v-63q0 -56 -2 -97.5t-6 -69.5q-5 -32 -22.5 -66.5t-41.5 -57.5
q-70 -68 -188 -68h-257v712h257z" />
    <glyph glyph-name="E" unicode="E" horiz-adv-x="605" 
d="M83 0v712h469v-124h-330v-167h281v-124h-281v-173h330v-124h-469z" />
    <glyph glyph-name="F" unicode="F" horiz-adv-x="590" 
d="M222 588v-175h281v-124h-281v-289h-139v712h469v-124h-330z" />
    <glyph glyph-name="G" unicode="G" horiz-adv-x="637" 
d="M586 294q0 -41 -3.5 -72.5t-11.5 -57.5t-20.5 -47.5t-30.5 -40.5q-38 -40 -88.5 -61t-109.5 -21q-57 0 -106 20t-87 58q-24 25 -40.5 57t-20.5 61q-3 22 -6 63t-3 103v29q0 53 3 91.5t11 68t21.5 52t34.5 43.5q75 78 196 78q68 0 115 -20q13 -5 24 -11t22 -14t23.5 -19
t29.5 -27l-94 -94q-24 23 -37 33t-30 18q-25 10 -55 10q-58 0 -91 -38q-11 -12 -18 -27.5t-9 -30.5q-3 -23 -5 -58.5t-2 -83.5v-20q0 -42 1.5 -71.5t5.5 -50t10.5 -34.5t16.5 -25q33 -37 89 -37q59 0 92.5 37t33.5 100v25h-126v116h265v-102z" />
    <glyph glyph-name="H" unicode="H" horiz-adv-x="685" 
d="M463 0v298h-241v-298h-139v712h139v-291h241v291h139v-712h-139z" />
    <glyph glyph-name="I" unicode="I" horiz-adv-x="305" 
d="M83 0v712h139v-712h-139z" />
    <glyph glyph-name="J" unicode="J" horiz-adv-x="511" 
d="M437 234q0 -54 -18.5 -98t-51.5 -75.5t-80 -49t-104 -17.5t-100 18q-11 4 -20.5 9t-18.5 11t-18.5 14.5t-22.5 20.5l92 91q23 -23 42.5 -31.5t47.5 -8.5q55 0 84 31.5t29 90.5v472h139v-478z" />
    <glyph glyph-name="K" unicode="K" horiz-adv-x="665" 
d="M497 0l-183 324l-92 -110v-214h-139v712h139v-310l251 310h169l-236 -283l253 -429h-162z" />
    <glyph glyph-name="L" unicode="L" horiz-adv-x="575" 
d="M83 0v712h139v-588h323v-124h-462z" />
    <glyph glyph-name="M" unicode="M" horiz-adv-x="811" 
d="M589 0v415l-136 -270h-94l-137 270v-415h-139v712h137l186 -385l185 385h137v-712h-139z" />
    <glyph glyph-name="N" unicode="N" horiz-adv-x="711" 
d="M504 0l-282 437v-437h-139v712h124l282 -436v436h139v-712h-124z" />
    <glyph glyph-name="O" unicode="O" horiz-adv-x="644" 
d="M446 369q0 44 -1.5 74.5t-5.5 51.5t-11 35t-17 26q-33 38 -89 38q-27 0 -50 -9.5t-40 -28.5q-24 -26 -29 -75t-5 -115v-64.5t3 -59t10 -50t21 -36.5q38 -38 90 -38q56 0 89 38q11 12 18 26.5t10.5 38t5 59t1.5 89.5zM585 356q0 -38 -0.5 -76t-6.5 -74.5t-21 -70
t-43 -63.5q-75 -78 -192 -78t-193 78q-28 29 -42.5 64t-20.5 72t-6.5 72.5t-0.5 65.5v39q0 53 3 91.5t11 68t21.5 52t34.5 43.5q76 78 193 78q116 0 192 -78q37 -38 54 -93t17 -141v-50z" />
    <glyph glyph-name="P" unicode="P" horiz-adv-x="628" 
d="M352 393q47 0 75 26t28 71t-28 71.5t-75 26.5h-130v-195h130zM359 712q51 0 94.5 -16.5t74.5 -46t48.5 -70t17.5 -89.5t-17.5 -89.5t-48.5 -70t-74 -46t-95 -16.5h-137v-268h-139v712h276z" />
    <glyph glyph-name="Q" unicode="Q" horiz-adv-x="643" 
d="M433 212q8 26 10.5 51.5t2.5 52.5v40q0 49 -1.5 82t-5.5 55t-11 36.5t-17 26.5q-33 38 -89 38q-27 0 -50 -9.5t-40 -28.5q-11 -12 -18 -27.5t-9 -30.5q-3 -23 -5 -58.5t-2 -83.5v-20q0 -42 1.5 -71t5.5 -49.5t10.5 -34.5t16.5 -25q17 -19 40 -28.5t49 -9.5q14 0 25 2.5
t22 10.5l-62 61l74 73zM529 -30l-63 63q-64 -39 -144 -39q-118 0 -193 78q-24 25 -40.5 57t-20.5 61q-3 22 -6 63t-3 103v29q0 53 3 91.5t11 68t21.5 52t34.5 43.5q76 78 193 78q116 0 192 -78q24 -25 40.5 -57.5t21.5 -62.5q3 -24 6 -65t3 -99v-27q0 -62 -3.5 -99.5
t-12.5 -66.5q-5 -16 -10.5 -27.5t-17.5 -31.5l61 -61z" />
    <glyph glyph-name="R" unicode="R" horiz-adv-x="654" 
d="M353 400q45 0 73 26t28 68t-28 68t-73 26h-131v-188h131zM461 0l-139 284h-100v-284h-139v712h279q51 0 93.5 -16t73 -45t47.5 -69t17 -88q0 -87 -60 -144q-14 -14 -28 -23t-42 -20l159 -307h-161z" />
    <glyph glyph-name="S" unicode="S" horiz-adv-x="591" 
d="M437 548q-17 15 -28 21.5t-26 12.5q-18 7 -40 11t-45 4q-55 0 -86 -23.5t-31 -65.5q0 -33 22.5 -53.5t64.5 -26.5l84 -12q98 -14 144.5 -63.5t46.5 -140.5q0 -103 -73 -160.5t-202 -57.5q-42 0 -80.5 7t-72.5 21q-13 5 -24 10.5t-22 13t-23 18t-27 24.5l90 90
q20 -17 32 -25t30 -16q47 -19 109 -19q127 0 127 89q0 38 -20 58t-65 26l-86 12q-189 26 -189 197q0 102 68 160t187 58q72 0 132 -23q12 -5 22.5 -10t21 -12t21.5 -16t26 -22z" />
    <glyph glyph-name="T" unicode="T" horiz-adv-x="571" 
d="M355 588v-588h-139v588h-186v124h511v-124h-186z" />
    <glyph glyph-name="U" unicode="U" horiz-adv-x="668" 
d="M596 244q0 -54 -19.5 -100t-54.5 -79.5t-83 -52t-105 -18.5t-105 18.5t-83 52t-54.5 79.5t-19.5 100v468h139v-463q0 -61 33 -96t90 -35t90.5 35t33.5 96v463h138v-468z" />
    <glyph glyph-name="V" unicode="V" horiz-adv-x="581" 
d="M342 0h-104l-235 712h144l143 -464l143 464h145z" />
    <glyph glyph-name="W" unicode="W" horiz-adv-x="887" 
d="M690 0h-116l-131 432l-131 -432h-116l-190 712h145l110 -449l130 449h104l130 -449l111 449h145z" />
    <glyph glyph-name="X" unicode="X" horiz-adv-x="603" 
d="M439 0l-138 248l-137 -248h-159l221 365l-207 347h158l124 -230l125 230h157l-207 -347l222 -365h-159z" />
    <glyph glyph-name="Y" unicode="Y" horiz-adv-x="572" 
d="M355 292v-292h-138v292l-214 420h151l133 -287l131 287h151z" />
    <glyph glyph-name="Z" unicode="Z" horiz-adv-x="548" 
d="M40 0v112l304 476h-291v124h455v-110l-305 -478h305v-124h-468z" />
    <glyph glyph-name="bracketleft" unicode="[" horiz-adv-x="378" 
d="M80 -74v860h257v-117h-127v-626h127v-117h-257z" />
    <glyph glyph-name="backslash" unicode="\" horiz-adv-x="403" 
d="M281 -74l-281 847h122l281 -847h-122z" />
    <glyph glyph-name="bracketright" unicode="]" horiz-adv-x="378" 
d="M42 -74v116h127v628h-127v116h257v-860h-257z" />
    <glyph glyph-name="asciicircum" unicode="^" horiz-adv-x="602" 
d="M403 388l-102 188l-102 -188h-136l178 330h120l178 -330h-136z" />
    <glyph glyph-name="underscore" unicode="_" horiz-adv-x="602" 
d="M0 -178v87h602v-87h-602z" />
    <glyph glyph-name="grave" unicode="`" horiz-adv-x="500" 
d="M218 604l-114 170h137l64 -170h-87z" />
    <glyph glyph-name="a" unicode="a" horiz-adv-x="534" 
d="M234 220q-35 0 -54 -15t-19 -44q0 -60 82 -60q51 0 72.5 21t21.5 70v28h-103zM340 0v45q-17 -17 -28 -24.5t-26 -13.5q-30 -12 -74 -12q-84 0 -130 42.5t-46 119.5q0 71 47.5 111.5t130.5 40.5h123v26q0 44 -23 63t-76 19q-17 0 -30 -2t-24.5 -7t-21.5 -13t-22 -21
l-83 81q11 11 20 19t16.5 14t15.5 10.5t18 9.5q44 19 115 19q225 0 225 -184v-343h-127z" />
    <glyph glyph-name="b" unicode="b" horiz-adv-x="560" 
d="M379 262q0 82 -19.5 115t-68.5 33q-56 0 -75 -46q-7 -17 -10 -43t-3 -68q0 -77 20 -109.5t68 -32.5q49 0 68.5 34t19.5 117zM203 475q16 17 26.5 24.5t24.5 13.5q33 14 73 14q39 0 72.5 -12t56.5 -35q33 -33 44 -88q3 -14 4.5 -27t2.5 -28t1.5 -33.5t0.5 -44.5
q0 -46 -3 -80t-9 -60t-16 -44.5t-25 -33.5q-23 -23 -56.5 -35t-72.5 -12q-41 0 -74 14q-15 7 -26 15t-28 26v-49h-126v712h130v-237z" />
    <glyph glyph-name="c" unicode="c" horiz-adv-x="480" 
d="M452 65q-23 -23 -38 -33t-36 -19q-42 -19 -97 -19q-112 0 -173 70t-61 201q0 124 61.5 193t172.5 69q55 0 97 -18q21 -9 36 -19t38 -33l-88 -88q-23 23 -41 32t-43 9q-103 0 -103 -149q0 -150 103 -150q26 0 43.5 9t40.5 32z" />
    <glyph glyph-name="d" unicode="d" horiz-adv-x="561" 
d="M358 261q0 82 -20 115.5t-69 33.5q-56 0 -75 -46q-7 -17 -10 -43t-3 -68q0 -77 20 -109.5t68 -32.5q49 0 69 33.5t20 116.5zM361 0v49q-17 -18 -28 -26t-26 -15q-33 -14 -73 -14q-39 0 -73 12t-57 35q-17 17 -29 42.5t-16 51.5q-3 22 -5.5 53.5t-2.5 72.5v16
q0 81 12 127.5t41 75.5q23 23 56.5 35t72.5 12q40 0 74 -14q14 -6 24.5 -13.5t26.5 -24.5v237h130v-712h-127z" />
    <glyph glyph-name="e" unicode="e" horiz-adv-x="548" 
d="M373 309q-3 54 -28.5 82t-70.5 28t-71 -28.5t-28 -81.5h198zM175 220q6 -116 119 -116q33 0 60 11q14 6 25 13.5t28 24.5l79 -77q-15 -14 -26 -23.5t-21 -16.5t-20.5 -12.5t-22.5 -10.5q-23 -9 -49.5 -14t-57.5 -5q-242 0 -242 268q0 61 16 110t45 83.5t71 53t95 18.5
q52 0 94 -17.5t71.5 -50t45.5 -78.5t16 -103v-58h-326z" />
    <glyph glyph-name="f" unicode="f" horiz-adv-x="342" 
d="M219 407v-407h-130v407h-54v99h54v65q0 68 41.5 108.5t110.5 40.5h74v-110h-51q-45 0 -45 -47v-57h96v-99h-96z" />
    <glyph glyph-name="g" unicode="g" horiz-adv-x="555" 
d="M352 275q0 73 -19.5 104t-66.5 31t-66 -30.5t-19 -104.5t19 -105t66 -31q46 0 66 31.5t20 104.5zM482 19q0 -49 -17 -89t-47.5 -68t-74 -43.5t-97.5 -15.5q-61 0 -107 18q-20 8 -35 18t-40 32l81 82q14 -13 23 -19t22 -11q12 -5 26 -7.5t29 -2.5q51 0 79 28.5t28 79.5v53
q-16 -17 -26.5 -24.5t-24.5 -13.5q-33 -14 -71 -14q-80 0 -126 46q-17 17 -30 42t-16 49q-3 20 -5 49t-2 67v16q0 37 3 66.5t9 52t16 40t25 31.5q48 46 127 46q41 0 70 -13q16 -7 27 -15.5t28 -26.5v49h126v-502z" />
    <glyph glyph-name="h" unicode="h" horiz-adv-x="569" 
d="M372 0v318q0 43 -22.5 67.5t-62.5 24.5q-39 0 -61.5 -24.5t-22.5 -67.5v-318h-130v712h130v-239q18 17 29.5 25t28.5 15q31 14 69 14q79 0 125.5 -51.5t46.5 -138.5v-337h-130z" />
    <glyph glyph-name="i" unicode="i" horiz-adv-x="275" 
d="M73 0v521h130v-521h-130zM219 670q0 -35 -23.5 -59.5t-57.5 -24.5t-58 24t-24 58t24 57.5t58 23.5q16 0 31 -6.5t26 -17t17.5 -25t6.5 -30.5z" />
    <glyph glyph-name="j" unicode="j" horiz-adv-x="275" 
d="M203 -46q0 -68 -41.5 -108.5t-110.5 -40.5h-74v110h50q46 0 46 47v559h130v-567zM219 670q0 -35 -23.5 -59.5t-57.5 -24.5t-58 24t-24 58t24 57.5t58 23.5q16 0 31 -6.5t26 -17t17.5 -25t6.5 -30.5z" />
    <glyph glyph-name="k" unicode="k" horiz-adv-x="559" 
d="M386 0l-128 217l-55 -62v-155h-130v712h130v-404l173 213h157l-186 -210l200 -311h-161z" />
    <glyph glyph-name="l" unicode="l" horiz-adv-x="275" 
d="M203 712v-712h-130v712h130z" />
    <glyph glyph-name="m" unicode="m" horiz-adv-x="876" 
d="M679 0v315q0 45 -23 70t-63 25t-63.5 -25t-23.5 -67v-318h-130v315q0 45 -23 70t-63 25q-41 0 -64 -25t-23 -70v-315h-130v521h127v-48q18 17 29.5 24.5t28.5 14.5q34 15 74 15q43 0 81 -18q17 -8 27.5 -18t27.5 -30q11 11 20 18.5t16.5 13t15.5 10t18 8.5q36 16 84 16
q87 0 137 -52t50 -142v-333h-130z" />
    <glyph glyph-name="n" unicode="n" horiz-adv-x="573" 
d="M376 0v315q0 45 -23 70t-63 25q-41 0 -64 -25t-23 -70v-315h-130v521h127v-48q17 17 28 24t28 15q34 15 75 15q82 0 128.5 -51.5t46.5 -142.5v-333h-130z" />
    <glyph glyph-name="o" unicode="o" 
d="M362 261q0 25 -2 51.5t-11 48t-27.5 35.5t-50.5 14q-33 0 -51.5 -15t-27 -38.5t-10 -51t-1.5 -52.5q0 -75 21 -108.5t69 -33.5q33 0 51 14t27 35.5t11 48t2 52.5zM492 263q0 -40 -3 -70.5t-10 -54.5t-18.5 -43.5t-27.5 -36.5q-61 -64 -162 -64q-100 0 -161 64
q-17 17 -28 36.5t-18 43.5t-10 54t-3 69t3 68.5t10 53.5t18.5 43.5t27.5 36.5q61 64 161 64q101 0 162 -64q32 -34 45.5 -79t13.5 -121z" />
    <glyph glyph-name="p" unicode="p" horiz-adv-x="560" 
d="M379 262q0 82 -19.5 115t-68.5 33q-56 0 -75 -46q-7 -17 -10 -43t-3 -68q0 -77 20 -109.5t68 -32.5q49 0 68.5 34t19.5 117zM199 472q17 17 28 25.5t26 15.5q33 14 74 14q39 0 72.5 -12t56.5 -35q33 -33 44 -88q3 -14 4.5 -27t2.5 -28t1.5 -33.5t0.5 -44.5q0 -46 -3 -80
t-9 -60t-16 -44.5t-25 -33.5q-23 -23 -56.5 -35t-72.5 -12q-40 0 -73 14q-14 6 -24 13.5t-27 24.5v-237h-130v712h126v-49z" />
    <glyph glyph-name="q" unicode="q" horiz-adv-x="561" 
d="M358 261q0 82 -20 115.5t-69 33.5q-56 0 -75 -46q-7 -17 -10 -43t-3 -68q0 -77 20 -109.5t68 -32.5q49 0 69 33.5t20 116.5zM358 -191v237q-16 -17 -26.5 -24t-24.5 -14q-33 -14 -74 -14q-39 0 -72.5 12t-56.5 35q-17 17 -29 42.5t-16 51.5q-3 22 -5.5 53.5t-2.5 72.5v17
q0 80 12 126.5t41 75.5q23 23 57 35t73 12q40 0 73 -14q15 -7 26 -15t28 -26v49h127v-712h-130z" />
    <glyph glyph-name="r" unicode="r" horiz-adv-x="455" 
d="M356 379q-18 17 -32.5 24t-34.5 7q-38 0 -62 -26.5t-24 -69.5v-314h-130v521h127v-50q15 16 25 23t27 15q39 18 82 18q37 0 67 -12q14 -6 25 -13.5t28 -23.5z" />
    <glyph glyph-name="s" unicode="s" horiz-adv-x="501" 
d="M369 385q-12 10 -19 14t-18 8q-37 13 -79 13q-79 0 -79 -51q0 -38 54 -44l82 -8q75 -8 115 -46.5t40 -105.5q0 -83 -61 -127t-176 -44q-36 0 -68.5 5.5t-59.5 16.5q-21 8 -36.5 19t-41.5 34l85 85q17 -14 26.5 -20.5t23.5 -12.5q40 -16 86 -16q45 0 70 14.5t25 40.5
q0 41 -55 47l-82 8q-152 15 -152 144q0 78 56.5 123t155.5 45q33 0 65.5 -5.5t58.5 -15.5q18 -7 31 -15t33 -25z" />
    <glyph glyph-name="t" unicode="t" horiz-adv-x="352" 
d="M236 0q-69 0 -110 40.5t-41 108.5v258h-55v99h55v154h130v-154h92v-99h-92v-250q0 -47 45 -47h47v-110h-71z" />
    <glyph glyph-name="u" unicode="u" horiz-adv-x="573" 
d="M373 0v48q-17 -17 -28 -24t-28 -15q-35 -15 -76 -15q-81 0 -127.5 51.5t-46.5 142.5v333h130v-315q0 -45 23 -70t63 -25q41 0 64 25t23 70v315h130v-521h-127z" />
    <glyph glyph-name="v" unicode="v" horiz-adv-x="493" 
d="M298 0h-102l-192 521h137l106 -322l105 322h137z" />
    <glyph glyph-name="w" unicode="w" horiz-adv-x="759" 
d="M596 0h-107l-109 327l-109 -327h-107l-160 521h138l84 -322l106 322h95l107 -322l84 322h137z" />
    <glyph glyph-name="x" unicode="x" horiz-adv-x="527" 
d="M359 0l-96 156l-95 -156h-156l180 266l-173 255h156l88 -149l89 149h156l-173 -255l180 -266h-156z" />
    <glyph glyph-name="y" unicode="y" horiz-adv-x="494" 
d="M267 -84q-21 -57 -56 -82t-95 -25h-51v117h30q29 0 42 9.5t23 37.5l22 64l-178 484h137l108 -322l104 322h137z" />
    <glyph glyph-name="z" unicode="z" horiz-adv-x="478" 
d="M37 0v99l231 305h-218v117h384v-99l-234 -305h234v-117h-397z" />
    <glyph glyph-name="braceleft" unicode="{" horiz-adv-x="457" 
d="M312 -74q-75 0 -114.5 38t-39.5 110v145q0 79 -69 79h-46v116h46q69 0 69 79v145q0 71 40 109.5t114 38.5h102v-117h-53q-44 0 -58.5 -15.5t-14.5 -62.5v-135q0 -40 -15.5 -62.5t-53.5 -37.5q38 -15 53.5 -37.5t15.5 -62.5v-135q0 -47 14.5 -62.5t58.5 -15.5h53v-117
h-102z" />
    <glyph glyph-name="bar" unicode="|" horiz-adv-x="350" 
d="M110 -74v860h130v-860h-130z" />
    <glyph glyph-name="braceright" unicode="}" horiz-adv-x="457" 
d="M368 298q-69 0 -69 -79v-145q0 -71 -40 -109.5t-114 -38.5h-102v117h53q44 0 58.5 15.5t14.5 62.5v135q0 40 15.5 62.5t53.5 37.5q-38 15 -53.5 37.5t-15.5 62.5v135q0 47 -14.5 62.5t-58.5 15.5h-53v117h102q74 0 114 -38t40 -110v-145q0 -79 69 -79h46v-116h-46z" />
    <glyph glyph-name="asciitilde" unicode="~" horiz-adv-x="606" 
d="M569 281q-17 -17 -30 -28.5t-23.5 -19.5t-21 -13.5t-22.5 -11.5q-14 -7 -31.5 -10t-36.5 -3q-25 0 -49 6q-11 3 -22 7t-21 9q-5 2 -25 12q-26 14 -44.5 19t-38.5 5q-24 0 -41.5 -8.5t-43.5 -33.5l-82 82q26 26 41 38.5t32 22.5q22 13 43.5 19t47.5 6q25 0 49 -6
q16 -4 29 -9.5t39 -18.5q27 -14 44.5 -19t37.5 -5q25 0 42.5 8.5t43.5 33.5z" />
    <glyph glyph-name="quotedblbase" unicode="&#x201e;" horiz-adv-x="482" 
d="M435 126l-75 -247h-107l53 247h129zM230 126l-75 -247h-107l53 247h129z" />
    <glyph glyph-name="ellipsis" unicode="&#x2026;" horiz-adv-x="846" 
d="M235 85q0 -37 -25.5 -62.5t-62.5 -25.5q-36 0 -61.5 25.5t-25.5 61.5t25.5 61.5t61.5 25.5q18 0 34 -7t28 -19t19 -27.5t7 -32.5zM510 86q0 -38 -25 -63.5t-62 -25.5q-36 0 -61.5 25.5t-25.5 61.5t25.5 61.5t61.5 25.5q18 0 33.5 -7t27.5 -18.5t19 -27t7 -32.5zM786 86
q0 -38 -25 -63.5t-62 -25.5q-36 0 -61.5 25.5t-25.5 61.5t25.5 61.5t61.5 25.5q18 0 33.5 -7t27.5 -18.5t19 -27t7 -32.5z" />
    <glyph glyph-name="dagger" unicode="&#x2020;" horiz-adv-x="579" 
d="M354 410v-410h-130v410h-167v117h167v185h130v-185h168v-117h-168z" />
    <glyph glyph-name="quoteleft" unicode="&#x2018;" horiz-adv-x="273" 
d="M174 541h-129l75 247h107z" />
    <glyph glyph-name="quoteright" unicode="&#x2019;" horiz-adv-x="273" 
d="M228 788l-75 -247h-107l53 247h129z" />
    <glyph glyph-name="quotedblleft" unicode="&#x201c;" horiz-adv-x="482" 
d="M177 541h-129l75 247h107zM382 541h-129l75 247h107z" />
    <glyph glyph-name="quotedblright" unicode="&#x201d;" horiz-adv-x="482" 
d="M435 788l-75 -247h-107l53 247h129zM230 788l-75 -247h-107l53 247h129z" />
    <glyph glyph-name="bullet" unicode="&#x2022;" horiz-adv-x="493" 
d="M409 337q0 -35 -12.5 -65t-34.5 -52.5t-52 -35.5t-64 -13t-63.5 13t-51.5 35t-35 51.5t-13 63.5t13 63.5t35 51.5t51.5 35t63.5 13q33 0 62.5 -13t52 -34.5t35.5 -50.5t13 -62z" />
    <glyph glyph-name="endash" unicode="&#x2013;" horiz-adv-x="500" 
d="M0 225v121h500v-121h-500z" />
    <glyph glyph-name="emdash" unicode="&#x2014;" horiz-adv-x="1000" 
d="M0 225v121h1000v-121h-1000z" />
    <glyph glyph-name="trademark" unicode="&#x2122;" horiz-adv-x="924" 
d="M250 627v-342h-95v342h-110v85h315v-85h-110zM765 285v252l-80 -157h-84l-80 157v-252h-95v427h95l122 -228l122 228h95v-427h-95z" />
    <glyph glyph-name="nonbreakingspace" unicode="&#xa0;" horiz-adv-x="232" 
 />
    <glyph glyph-name="currency" unicode="&#xa4;" horiz-adv-x="669" 
d="M452 284q0 25 -9 47t-25 38t-37.5 25t-46.5 9q-24 0 -45.5 -9t-37.5 -25t-25 -37.5t-9 -45.5t9 -45.5t25 -37.5t37.5 -25t45.5 -9t45.5 9t37.5 25t25.5 36.5t9.5 44.5zM525 10l-74 73q-28 -16 -56.5 -24t-60.5 -8t-60 8t-56 24l-74 -73l-86 86l74 73q-18 32 -25.5 59
t-7.5 58t7.5 58t25.5 59l-74 73l86 86l74 -73q28 16 56 24t60 8t60.5 -8t56.5 -24l74 73l85 -86l-73 -73q16 -28 24 -56.5t8 -60.5t-8 -60.5t-24 -56.5l73 -73z" />
    <glyph glyph-name="section" unicode="&#xa7;" horiz-adv-x="531" 
d="M348 267q0 42 -21.5 66.5t-59.5 24.5t-59.5 -23t-21.5 -65t21.5 -65.5t59.5 -23.5q37 0 59 23.5t22 62.5zM338 546q-3 32 -19.5 46.5t-51.5 14.5q-32 0 -50.5 -16t-18.5 -42q0 -45 67 -67l62 -20q75 -24 110.5 -68.5t35.5 -114.5q0 -95 -90 -154q18 -10 27 -16.5
t18 -16.5q36 -41 36 -105q0 -41 -14.5 -75t-41 -58t-63 -37.5t-81.5 -13.5t-83.5 14t-64.5 40q-22 22 -34 50q-8 17 -10.5 31.5t-4.5 42.5h125q6 -63 74 -63q33 0 53 17t20 46q0 51 -70 75l-62 21q-77 26 -111.5 69t-34.5 112q0 51 22 89t69 67q-17 10 -26 16.5t-17 16.5
q-33 37 -33 96q0 40 13.5 72t39 55t61 35.5t79.5 12.5q94 0 144 -50q10 -11 18.5 -23t14.5 -26q7 -16 9.5 -31t4.5 -42h-122z" />
    <glyph glyph-name="copyright" unicode="&#xa9;" horiz-adv-x="844" 
d="M561 212q-31 -26 -60.5 -39t-70.5 -13q-83 0 -131.5 52.5t-48.5 143.5q0 45 13 81t36 62t56 40t74 14q42 0 71 -13.5t61 -39.5l-56 -56q-23 19 -38.5 25.5t-37.5 6.5q-46 0 -70 -31.5t-24 -91.5q0 -56 25 -86.5t70 -30.5q21 0 36.5 6.5t38.5 25.5zM697 350
q0 62 -20.5 114.5t-57.5 91t-87 60t-110 21.5q-59 0 -109.5 -21.5t-87.5 -59t-58 -89t-21 -111.5t21 -111.5t58 -89t87.5 -59t109.5 -21.5q57 0 107.5 21.5t87.5 58.5t58.5 87.5t21.5 107.5zM784 363q0 -78 -28 -145t-77 -117t-115 -78.5t-142 -28.5q-75 0 -141 28.5
t-115 77.5t-77.5 115t-28.5 141t28.5 141t77.5 115t115 77.5t141 28.5q73 0 139 -28.5t115.5 -77t78.5 -113t29 -136.5z" />
    <glyph glyph-name="guillemotleft" unicode="&#xab;" horiz-adv-x="628" 
d="M34 275l249 248v-155l-94 -93l94 -93v-155zM312 275l250 248v-155l-96 -93l96 -93v-155z" />
    <glyph glyph-name="logicalnot" unicode="&#xac;" 
d="M376 94v145h-330v121h451v-266h-121z" />
    <glyph glyph-name="registered" unicode="&#xae;" horiz-adv-x="423" 
d="M188 542h31q12 0 19.5 7t7.5 19q0 11 -7.5 18t-19.5 7h-31v-51zM245 430l-35 78h-22v-78h-45v200h82q29 0 47.5 -17.5t18.5 -45.5q0 -20 -9.5 -32t-26.5 -20l41 -85h-51zM355 527q0 32 -11 59.5t-30 47.5t-45.5 31.5t-57.5 11.5q-30 0 -56.5 -11.5t-45.5 -31t-30 -46.5
t-11 -58t11 -58t30 -46.5t45.5 -30.5t56.5 -11t56.5 11t46 30.5t30.5 45.5t11 56zM399 533q0 -40 -14.5 -75t-40 -60.5t-59.5 -40.5t-74 -15q-39 0 -73.5 14.5t-60 40t-40 60t-14.5 73.5t14.5 73t40 59.5t60 40.5t73.5 15q38 0 72.5 -15t60 -40t40.5 -59t15 -71z" />
    <glyph glyph-name="degree" unicode="&#xb0;" horiz-adv-x="478" 
d="M318 540q0 35 -23 58.5t-57 23.5q-33 0 -55.5 -23t-22.5 -57t23 -57t56 -23q32 0 55.5 23t23.5 55zM423 545q0 -39 -14 -73.5t-39 -59.5t-58.5 -39.5t-72.5 -14.5q-38 0 -71.5 14.5t-58.5 39.5t-39.5 58.5t-14.5 71.5t14.5 72t39.5 59t58.5 39.5t71.5 14.5
q37 0 70.5 -14.5t59 -39.5t40 -58t14.5 -70z" />
    <glyph glyph-name="plusminus" unicode="&#xb1;" 
d="M50 0v122h443v-122h-443zM333 341v-161h-122v161h-161v121h161v161h122v-161h160v-121h-160z" />
    <glyph glyph-name="mu" unicode="&#xb5;" horiz-adv-x="576" 
d="M376 0v48q-27 -26 -58.5 -40t-69.5 -14q-16 0 -26.5 3t-21.5 11v-199h-130v712h130v-315q0 -45 23 -70t63 -25q41 0 64 25t23 70v315h130v-521h-127z" />
    <glyph glyph-name="mu" unicode="&#x3bc;" horiz-adv-x="576" 
d="M376 0v48q-27 -26 -58.5 -40t-69.5 -14q-16 0 -26.5 3t-21.5 11v-199h-130v712h130v-315q0 -45 23 -70t63 -25q41 0 64 25t23 70v315h130v-521h-127z" />
    <glyph glyph-name="paragraph" unicode="&#xb6;" horiz-adv-x="668" 
d="M455 -191v779h-100v-779h-130v499q-42 3 -77 19t-60 43t-39 63t-14 79q0 93 62 146.5t169 53.5h319v-903h-130z" />
    <glyph glyph-name="guillemotright" unicode="&#xbb;" horiz-adv-x="628" 
d="M67 27v155l95 93l-95 93v155l249 -248zM345 27v155l94 93l-94 93v155l250 -248z" />
    <glyph glyph-name="Delta" unicode="&#x394;" horiz-adv-x="634" 
d="M320 502l-134 -385h264zM3 0l260 712h108l260 -712h-628z" />
    <glyph glyph-name="Delta" unicode="&#x2206;" horiz-adv-x="634" 
d="M320 502l-134 -385h264zM3 0l260 712h108l260 -712h-628z" />
    <glyph glyph-name="approxequal" unicode="&#x2248;" horiz-adv-x="606" 
d="M569 167q-26 -26 -41 -38.5t-32 -22.5q-22 -13 -44 -19t-48 -6t-50 6q-8 2 -14.5 4t-13.5 5t-16 7t-22 11q-29 14 -45.5 19.5t-36.5 5.5q-24 0 -42 -9t-44 -34l-83 82q17 16 30 27.5t24 20t21.5 14t22.5 11.5q14 7 31.5 10t36.5 3q26 0 50 -6q8 -2 14.5 -4t13.5 -5
t16 -7.5t22 -10.5q27 -14 45 -19t38 -5q24 0 41.5 8.5t43.5 33.5zM569 393q-17 -17 -30 -28.5t-23.5 -19.5t-21 -13.5t-22.5 -11.5q-14 -7 -31.5 -10t-36.5 -3q-27 0 -51 6q-8 2 -14 4t-13 4.5t-16 7l-23 11.5q-27 14 -45 19t-38 5q-24 0 -41.5 -8.5t-43.5 -33.5l-82 82
q26 26 41 38.5t32 22.5q22 13 44 19t48 6q29 0 54.5 -7t61.5 -26q15 -8 26 -12.5t20 -7.5t17.5 -4t18.5 -1q24 0 42 9t44 34z" />
    <glyph glyph-name="daggerdbl" unicode="&#x2021;" horiz-adv-x="579" 
d="M354 -6v-185h-130v185h-167v117h167v299h-167v117h167v185h130v-185h168v-117h-168v-299h168v-117h-168z" />
    <glyph glyph-name="divide" unicode="&#xf7;" 
d="M359 81q0 -19 -7 -35.5t-18.5 -28.5t-27.5 -19t-34 -7t-34 7t-28 19t-19 28t-7 34q0 36 26 61.5t62 25.5q18 0 33.5 -7t27.5 -18.5t19 -27t7 -32.5zM46 225v121h451v-121h-451zM359 493q0 -37 -25 -62.5t-62 -25.5q-36 0 -62 25.5t-26 61.5q0 18 7 34t19 28t28 19t34 7
t33.5 -7t27.5 -19t19 -27.5t7 -33.5z" />
    <glyph glyph-name="florin" unicode="&#x192;" horiz-adv-x="427" 
d="M328 610q-46 0 -54 -47l-29 -166h96v-100h-113l-87 -488h-130l87 488h-67v100h84l31 174q12 68 60 109t117 40l74 -1v-109h-69z" />
    <glyph glyph-name="greaterequal" unicode="&#x2265;" 
d="M33 -18v121h477v-121h-477zM33 151v126l309 90l-309 84v125l477 -149v-121z" />
    <glyph glyph-name="guilsinglleft" unicode="&#x2039;" horiz-adv-x="350" 
d="M34 275l249 248v-155l-94 -93l94 -93v-155z" />
    <glyph glyph-name="guilsinglright" unicode="&#x203a;" horiz-adv-x="350" 
d="M67 27v155l95 93l-95 93v155l249 -248z" />
    <glyph glyph-name="infinity" unicode="&#x221e;" horiz-adv-x="851" 
d="M337 281q-17 19 -29 32t-22.5 20.5t-20.5 10.5t-21 3q-27 0 -45 -18.5t-18 -47.5t17.5 -47t45.5 -18q22 0 41.5 13.5t51.5 51.5zM514 281q16 -20 28 -32.5t22.5 -19.5t20.5 -10t21 -3q28 0 46 18t18 47t-18 47t-46 18q-15 0 -28.5 -6t-24.5 -16t-20.5 -21.5t-18.5 -21.5z
M425 379q39 42 81.5 68.5t101.5 26.5q42 0 76.5 -13.5t59.5 -38.5t38.5 -60t13.5 -78q0 -42 -13.5 -77t-38 -59.5t-59.5 -38t-77 -13.5q-60 0 -101.5 25.5t-81.5 68.5q-39 -42 -81 -68t-101 -26q-42 0 -77 13.5t-59.5 38t-38 59.5t-13.5 77q0 43 13.5 78t38 60t59 38.5
t76.5 13.5q59 0 101.5 -26.5t81.5 -68.5z" />
    <glyph glyph-name="lessequal" unicode="&#x2264;" 
d="M33 -18v121h477v-121h-477zM33 306v121l477 149v-125l-309 -84l309 -90v-126z" />
    <glyph glyph-name="notequal" unicode="&#x2260;" 
d="M224 116l-81 -119l-85 52l46 67h-54v122h129l67 95h-196v122h270l82 121l85 -53l-48 -68h54v-122h-128l-67 -95h195v-122h-269z" />
    <glyph glyph-name="periodcentered" unicode="&#xb7;" horiz-adv-x="295" 
d="M235 285q0 -37 -25.5 -62.5t-62.5 -25.5q-36 0 -61.5 25.5t-25.5 61.5t25.5 62t61.5 26q18 0 34 -7t28 -19t19 -27.5t7 -33.5z" />
    <glyph glyph-name="periodcentered" unicode="&#x2219;" horiz-adv-x="295" 
d="M235 285q0 -37 -25.5 -62.5t-62.5 -25.5q-36 0 -61.5 25.5t-25.5 61.5t25.5 62t61.5 26q18 0 34 -7t28 -19t19 -27.5t7 -33.5z" />
    <glyph glyph-name="perthousand" unicode="&#x2030;" horiz-adv-x="1211" 
d="M146 486q0 -57 51 -57t51 57v91q0 57 -51 57t-51 -57v-91zM600 135q0 -57 51 -57t51 57v91q0 57 -51 57t-51 -57v-91zM962 135q0 -57 52 -57q50 0 50 56v92q0 57 -51 57t-51 -57v-91zM342 482q0 -62 -39.5 -99.5t-105.5 -37.5t-105.5 37t-39.5 100v99q0 62 39.5 99.5
t105.5 37.5t105.5 -37.5t39.5 -99.5v-99zM307 0h-102l337 712h102zM796 131q0 -62 -39.5 -99.5t-105.5 -37.5t-105.5 37t-39.5 100v99q0 62 39.5 99.5t105.5 37.5t105.5 -37.5t39.5 -99.5v-99zM1158 131q0 -62 -39.5 -99.5t-105.5 -37.5t-105.5 37t-39.5 100v99
q0 62 39.5 99.5t105.5 37.5t105.5 -37.5t39.5 -99.5v-99z" />
    <glyph glyph-name="quotesinglbase" unicode="&#x201a;" horiz-adv-x="273" 
d="M230 126l-75 -247h-107l53 247h129z" />
    <glyph glyph-name="radical" unicode="&#x221a;" horiz-adv-x="596" 
d="M474 588l-194 -588h-105l-172 521h141l84 -273l143 464h195v-124h-92z" />
    <glyph glyph-name="sterling" unicode="&#xa3;" horiz-adv-x="579" 
d="M101 0v297h-61v100h61v81q0 54 18.5 98t51.5 75.5t80 49t104 17.5q56 0 100 -18l19 -9.5t18 -10.5t19 -14.5t23 -20.5l-91 -91q-24 23 -43 31.5t-48 8.5q-54 0 -83.5 -31.5t-29.5 -90.5v-75h113v-100h-113v-173h295v-124h-433z" />
    <glyph glyph-name="quotedbl" unicode="&#x22;" horiz-adv-x="464" 
d="M68 501v211h122v-211h-122zM274 501v211h121v-211h-121z" />
    <glyph glyph-name="exclam" unicode="!" horiz-adv-x="347" 
d="M271 76q0 -33 -23 -56t-56 -23q-32 0 -55 23t-23 55t23 55.5t55 23.5t55.5 -23t23.5 -55zM240 223h-96l-32 489h161z" />
    <glyph glyph-name="afii10051" unicode="&#x402;" horiz-adv-x="748" 
d="M682 42q0 -54 -14 -97.5t-43 -75t-75 -48.5t-109 -17q-40 0 -76.5 10t-68.5 35l83 100q15 -12 30 -16.5t35 -4.5q44 0 71.5 30.5t27.5 89.5v170q0 46 -26 66t-60 20h-134v-304h-138v588h-156v124h511v-124h-217v-162h163q42 0 77.5 -13t62 -37t41.5 -58.5t15 -77.5v-198z
" />
    <glyph glyph-name="afii10052" unicode="&#x403;" horiz-adv-x="561" 
d="M225 588v-588h-139v712h448v-124h-309zM323 757h-87l63 170h138z" />
    <glyph glyph-name="afii10100" unicode="&#x453;" horiz-adv-x="434" 
d="M204 406v-406h-130v521h347v-115h-217zM252 604h-87l64 170h137z" />
    <glyph glyph-name="afii10058" unicode="&#x409;" horiz-adv-x="1008" 
d="M602 319v-195h130q48 0 75.5 26.5t27.5 71.5q0 44 -27.5 70.5t-75.5 26.5h-130zM974 222q0 -49 -16.5 -89.5t-47 -70t-73 -46t-94.5 -16.5h-280v588h-162l-8 -298q-4 -151 -59.5 -220.5t-159.5 -69.5h-61v124h23q24 0 44.5 7.5t36.5 27t25 53t11 84.5l11 416h438v-268
h141q52 0 94.5 -16.5t73 -46t47 -70t16.5 -89.5z" />
    <glyph glyph-name="afii10059" unicode="&#x40a;" horiz-adv-x="1008" 
d="M602 319v-195h130q48 0 75.5 26.5t27.5 71.5q0 44 -27.5 70.5t-75.5 26.5h-130zM974 222q0 -49 -16.5 -89.5t-47 -70t-73 -46t-94.5 -16.5h-280v320h-241v-320h-139v712h139v-268h241v268h139v-268h141q52 0 94.5 -16.5t73 -46t47 -70t16.5 -89.5z" />
    <glyph glyph-name="afii10061" unicode="&#x40c;" horiz-adv-x="665" 
d="M338 757h-87l63 170h138zM497 0l-183 324l-92 -110v-214h-139v712h139v-310l251 310h169l-236 -283l253 -429h-162z" />
    <glyph glyph-name="afii10060" unicode="&#x40b;" horiz-adv-x="748" 
d="M543 0v230q0 46 -26 65.5t-60 19.5q-16 0 -34.5 -1.5t-37 -3.5t-35 -4.5t-27.5 -4.5v-301h-138v588h-156v124h511v-124h-217v-165q11 2 31 5t44 5.5t49 4.5t46 2q37 0 71 -13t60.5 -37t42 -58.5t15.5 -77.5v-254h-139z" />
    <glyph glyph-name="afii10145" unicode="&#x40f;" horiz-adv-x="686" 
d="M410 0v-158h-134v158h-193v712h139v-588h241v588h139v-712h-192z" />
    <glyph glyph-name="afii10099" unicode="&#x452;" horiz-adv-x="569" 
d="M502 -26q0 -34 -8.5 -64.5t-28 -54t-53 -37t-82.5 -13.5h-60v110h36q35 0 50 22t15 46v194q0 43 -21.5 67.5t-60.5 24.5t-62.5 -25t-23.5 -67v-177h-131v435h-47v100h47v177h131v-177h228v-100h-228v-103q29 28 58 41t70 13q80 0 125.5 -51t45.5 -139v-222z" />
    <glyph glyph-name="afii10106" unicode="&#x459;" horiz-adv-x="830" 
d="M670 167q0 29 -18.5 46.5t-50.5 17.5h-100v-129h100q32 0 50.5 17.5t18.5 47.5zM799 167q0 -37 -12.5 -67.5t-35.5 -52.5t-55 -34.5t-71 -12.5h-251v406h-122l-6 -203q-3 -104 -46 -153.5t-118 -49.5h-69v115h19q15 0 30 5t27 17.5t19.5 34.5t8.5 55l8 294h379v-188h121
q39 0 71 -12t55 -34t35.5 -52.5t12.5 -67.5z" />
    <glyph glyph-name="afii10107" unicode="&#x45a;" horiz-adv-x="827" 
d="M666 167q0 29 -18.5 46.5t-50.5 17.5h-100v-129h100q32 0 50.5 17.5t18.5 47.5zM795 167q0 -37 -12.5 -67.5t-35.5 -52.5t-55 -34.5t-70 -12.5h-252v218h-167v-218h-131v521h131v-188h167v188h131v-188h121q39 0 70.5 -12t54.5 -34t35.5 -52.5t12.5 -67.5z" />
    <glyph glyph-name="afii10109" unicode="&#x45c;" horiz-adv-x="558" 
d="M300 604h-87l64 170h137zM388 0l-131 212l-54 -62v-150h-130v521h130v-219l176 219h158l-191 -215l200 -306h-158z" />
    <glyph glyph-name="afii10108" unicode="&#x45b;" horiz-adv-x="569" 
d="M371 0v177q0 43 -22 67.5t-61 24.5q-40 0 -62.5 -25t-22.5 -67v-177h-131v435h-47v100h47v177h131v-177h228v-100h-228v-103q29 28 57.5 41t69.5 13q79 0 125.5 -51.5t46.5 -138.5v-196h-131z" />
    <glyph glyph-name="afii10193" unicode="&#x45f;" horiz-adv-x="573" 
d="M347 0v-128h-123v128h-152v521h131v-406h167v406h131v-521h-154z" />
    <glyph glyph-name="afii10062" unicode="&#x40e;" horiz-adv-x="581" 
d="M462 898q-8 -71 -48 -109.5t-115 -38.5t-115 38.5t-47 109.5h88q5 -27 23 -42t52 -15t51 15t22 42h89zM325 120q-10 -24 -24.5 -46t-34 -38.5t-44.5 -26t-56 -9.5h-85v124h56q29 0 46.5 11.5t27.5 33.5l21 49l-228 494h145l149 -343l135 343h144z" />
    <glyph glyph-name="afii10110" unicode="&#x45e;" horiz-adv-x="494" 
d="M267 -84q-21 -57 -56 -82t-95 -25h-51v117h30q29 0 42 9.5t23 37.5l22 64l-178 484h137l108 -322l104 322h137zM409 727q-8 -71 -48 -109.5t-115 -38.5t-115 38.5t-47 109.5h88q5 -27 23 -42t52 -15t51.5 15t22.5 42h88z" />
    <glyph glyph-name="afii10057" unicode="&#x408;" horiz-adv-x="511" 
d="M437 234q0 -54 -18.5 -98t-51.5 -75.5t-80 -49t-104 -17.5t-100 18q-11 4 -20.5 9t-18.5 11t-18.5 14.5t-22.5 20.5l92 91q23 -23 42.5 -31.5t47.5 -8.5q55 0 84 31.5t29 90.5v472h139v-478z" />
    <glyph glyph-name="afii10023" unicode="&#x401;" horiz-adv-x="605" 
d="M264 845q0 -29 -19.5 -48.5t-47.5 -19.5t-47.5 19.5t-19.5 47.5t19.5 47.5t47.5 19.5q27 0 47 -19.5t20 -46.5zM490 845q0 -29 -19.5 -48.5t-47.5 -19.5t-47.5 19.5t-19.5 47.5t19.5 47.5t47.5 19.5q27 0 47 -19.5t20 -46.5zM83 0v712h469v-124h-330v-167h281v-124h-281
v-173h330v-124h-469z" />
    <glyph glyph-name="afii10053" unicode="&#x404;" horiz-adv-x="562" 
d="M519 76q-44 -42 -89 -62t-107 -20q-118 0 -194 78q-26 27 -40.5 58t-21 66t-7.5 75t-1 85v29q0 53 3 91.5t11 68t21.5 52t34.5 43.5q76 78 193 78q62 0 107 -19.5t90 -62.5l-92 -92q-29 29 -51.5 39.5t-53.5 10.5q-40 0 -64 -15.5t-37 -40t-17.5 -56t-5.5 -64.5h210v-121
h-210q1 -33 5 -65t17 -57.5t37 -41t65 -15.5q31 0 53.5 10.5t51.5 39.5z" />
    <glyph glyph-name="afii10056" unicode="&#x407;" horiz-adv-x="305" 
d="M107 845q0 -29 -19.5 -48.5t-47.5 -19.5t-47.5 19.5t-19.5 47.5t19.5 47.5t47.5 19.5q27 0 47 -19.5t20 -46.5zM333 845q0 -29 -19.5 -48.5t-47.5 -19.5t-47.5 19.5t-19.5 47.5t19.5 47.5t47.5 19.5q27 0 47 -19.5t20 -46.5zM83 0v712h139v-712h-139z" />
    <glyph glyph-name="afii10055" horiz-adv-x="305" 
d="M83 0v712h139v-712h-139z" />
    <glyph glyph-name="afii10103" unicode="&#x456;" horiz-adv-x="275" 
d="M73 0v521h130v-521h-130zM219 670q0 -35 -23.5 -59.5t-57.5 -24.5t-58 24t-24 58t24 57.5t58 23.5q16 0 31 -6.5t26 -17t17.5 -25t6.5 -30.5z" />
    <glyph glyph-name="afii10071" unicode="&#x451;" horiz-adv-x="548" 
d="M373 309q-3 54 -28.5 82t-70.5 28t-71 -28.5t-28 -81.5h198zM231 668q0 -29 -19.5 -48.5t-47.5 -19.5t-47.5 19.5t-19.5 47.5t19.5 47.5t47.5 19.5q27 0 47 -19.5t20 -46.5zM457 668q0 -29 -19.5 -48.5t-47.5 -19.5t-47.5 19.5t-19.5 47.5t19.5 47.5t47.5 19.5
q27 0 47 -19.5t20 -46.5zM175 220q6 -116 119 -116q33 0 60 11q14 6 25 13.5t28 24.5l79 -77q-15 -14 -26 -23.5t-21 -16.5t-20.5 -12.5t-22.5 -10.5q-23 -9 -49.5 -14t-57.5 -5q-242 0 -242 268q0 61 16 110t45 83.5t71 53t95 18.5q52 0 94 -17.5t71.5 -50t45.5 -78.5
t16 -103v-58h-326z" />
    <glyph glyph-name="afii61352" unicode="&#x2116;" horiz-adv-x="969" 
d="M816 376q0 55 -50 55q-49 0 -49 -55v-92q0 -56 50 -56q49 0 49 56v92zM453 0l-254 456v-456h-130v712h115l253 -455v455h131v-712h-115zM623 0v100h290v-100h-290zM912 280q0 -62 -40 -99.5t-105 -37.5q-66 0 -106 37.5t-40 99.5v99q0 62 40 99.5t106 37.5
q65 0 105 -37.5t40 -99.5v-99z" />
    <glyph glyph-name="afii10101" unicode="&#x454;" horiz-adv-x="480" 
d="M452 64q-39 -37 -77.5 -53.5t-93.5 -16.5q-112 0 -173 69.5t-61 200.5q0 125 61.5 194t172.5 69q28 0 50.5 -4t43 -12.5t39 -22t38.5 -31.5l-86 -86q-23 22 -41 32t-44 10q-47 0 -72 -28.5t-31 -76.5h155v-89h-155q5 -50 29.5 -80.5t73.5 -30.5q26 0 44 9.5t41 32.5z" />
    <glyph glyph-name="afii10105" unicode="&#x458;" horiz-adv-x="275" 
d="M203 -46q0 -68 -41.5 -108.5t-110.5 -40.5h-74v110h50q46 0 46 47v559h130v-567zM219 670q0 -35 -23.5 -59.5t-57.5 -24.5t-58 24t-24 58t24 57.5t58 23.5q16 0 31 -6.5t26 -17t17.5 -25t6.5 -30.5z" />
    <glyph glyph-name="afii10054" unicode="&#x405;" horiz-adv-x="591" 
d="M437 548q-17 15 -28 21.5t-26 12.5q-18 7 -40 11t-45 4q-55 0 -86 -23.5t-31 -65.5q0 -33 22.5 -53.5t64.5 -26.5l84 -12q98 -14 144.5 -63.5t46.5 -140.5q0 -103 -73 -160.5t-202 -57.5q-42 0 -80.5 7t-72.5 21q-13 5 -24 10.5t-22 13t-23 18t-27 24.5l90 90
q20 -17 32 -25t30 -16q47 -19 109 -19q127 0 127 89q0 38 -20 58t-65 26l-86 12q-189 26 -189 197q0 102 68 160t187 58q72 0 132 -23q12 -5 22.5 -10t21 -12t21.5 -16t26 -22z" />
    <glyph glyph-name="afii10102" unicode="&#x455;" horiz-adv-x="501" 
d="M369 385q-12 10 -19 14t-18 8q-37 13 -79 13q-79 0 -79 -51q0 -38 54 -44l82 -8q75 -8 115 -46.5t40 -105.5q0 -83 -61 -127t-176 -44q-36 0 -68.5 5.5t-59.5 16.5q-21 8 -36.5 19t-41.5 34l85 85q17 -14 26.5 -20.5t23.5 -12.5q40 -16 86 -16q45 0 70 14.5t25 40.5
q0 41 -55 47l-82 8q-152 15 -152 144q0 78 56.5 123t155.5 45q33 0 65.5 -5.5t58.5 -15.5q18 -7 31 -15t33 -25z" />
    <glyph glyph-name="afii10104" unicode="&#x457;" horiz-adv-x="275" 
d="M91 668q0 -29 -19.5 -48.5t-47.5 -19.5t-47.5 19.5t-19.5 47.5t19.5 47.5t47.5 19.5q27 0 47 -19.5t20 -46.5zM317 668q0 -29 -19.5 -48.5t-47.5 -19.5t-47.5 19.5t-19.5 47.5t19.5 47.5t47.5 19.5q27 0 47 -19.5t20 -46.5zM73 0v521h130v-521h-130z" />
    <glyph glyph-name="afii10017" unicode="&#x410;" horiz-adv-x="638" 
d="M322 502l-90 -259h177zM488 0l-42 126h-253l-43 -126h-145l259 712h109l260 -712h-145z" />
    <glyph glyph-name="afii10018" unicode="&#x411;" horiz-adv-x="654" 
d="M460 222q0 44 -26 71t-73 27h-139v-196h139q47 0 73 26.5t26 71.5zM599 222q0 -49 -16 -89.5t-45.5 -70t-72.5 -46t-97 -16.5h-285v712h471v-124h-332v-144h146q54 0 96.5 -16.5t72.5 -46t46 -70t16 -89.5z" />
    <glyph glyph-name="afii10019" unicode="&#x412;" horiz-adv-x="658" 
d="M367 124q43 0 68 23.5t25 64.5t-25 64t-68 23h-145v-175h145zM358 424q43 0 67.5 22t24.5 60t-24.5 60t-67.5 22h-136v-164h136zM501 365q21 -11 32 -19t22 -19q23 -25 33.5 -55t10.5 -68q0 -47 -15 -84.5t-43.5 -64t-69 -41t-90.5 -14.5h-298v712h286q50 0 91 -14
t69.5 -39.5t44 -61.5t15.5 -81q0 -102 -88 -151z" />
    <glyph glyph-name="afii10020" unicode="&#x413;" horiz-adv-x="561" 
d="M225 588v-588h-139v712h448v-124h-309z" />
    <glyph glyph-name="afii10021" unicode="&#x414;" horiz-adv-x="710" 
d="M461 588h-152v-23q0 -79 -5.5 -141t-15 -113.5t-23.5 -96.5t-30 -90h226v464zM548 -158v158h-394v-158h-134v282h71q21 53 36.5 108t25 120t14.5 145t5 183v32h428v-588h82v-282h-134z" />
    <glyph glyph-name="afii10022" unicode="&#x415;" horiz-adv-x="605" 
d="M83 0v712h469v-124h-330v-167h281v-124h-281v-173h330v-124h-469z" />
    <glyph glyph-name="afii10024" unicode="&#x416;" horiz-adv-x="945" 
d="M777 0l-162 313l-74 -96v-217h-138v217l-74 96l-161 -313h-163l233 422l-213 290h166l212 -314v314h138v-314l212 314h166l-212 -290l232 -422h-162z" />
    <glyph glyph-name="afii10025" unicode="&#x417;" horiz-adv-x="589" 
d="M530 206q0 -48 -19 -87.5t-52.5 -67t-78.5 -42.5t-97 -15q-39 0 -74.5 4.5t-68 15t-63 28.5t-59.5 46l89 90q36 -32 79.5 -46t91.5 -14q23 0 43.5 6t36 18t24.5 29t9 38q0 47 -30 72.5t-78 25.5h-89v114h90q46 0 71.5 23.5t25.5 66.5q0 41 -30.5 63t-71.5 22
q-43 0 -80.5 -10.5t-69.5 -38.5l-86 88q51 45 112 64t130 19q49 0 91.5 -14t74.5 -39.5t50.5 -62t18.5 -81.5q0 -52 -25 -91t-68 -62q48 -21 75.5 -62t27.5 -100z" />
    <glyph glyph-name="afii10026" unicode="&#x418;" horiz-adv-x="706" 
d="M484 0v457l-277 -457h-124v712h139v-456l277 456h124v-712h-139z" />
    <glyph glyph-name="afii10027" unicode="&#x419;" horiz-adv-x="706" 
d="M484 0v457l-277 -457h-124v712h139v-456l277 456h124v-712h-139zM517 898q-8 -71 -48 -109.5t-115 -38.5t-115 38.5t-47 109.5h88q5 -27 23 -42t52 -15t51 15t22 42h89z" />
    <glyph glyph-name="afii10028" unicode="&#x41a;" horiz-adv-x="665" 
d="M497 0l-183 324l-92 -110v-214h-139v712h139v-310l251 310h169l-236 -283l253 -429h-162z" />
    <glyph glyph-name="afii10029" unicode="&#x41b;" horiz-adv-x="686" 
d="M463 0v588h-162l-8 -298q-4 -151 -59.5 -220.5t-159.5 -69.5h-61v124h23q24 0 44.5 7.5t36.5 27t25 53t11 84.5l11 416h438v-712h-139z" />
    <glyph glyph-name="afii10030" unicode="&#x41c;" horiz-adv-x="811" 
d="M589 0v415l-136 -270h-94l-137 270v-415h-139v712h137l186 -385l185 385h137v-712h-139z" />
    <glyph glyph-name="afii10031" unicode="&#x41d;" horiz-adv-x="685" 
d="M463 0v298h-241v-298h-139v712h139v-291h241v291h139v-712h-139z" />
    <glyph glyph-name="afii10032" unicode="&#x41e;" horiz-adv-x="644" 
d="M446 369q0 44 -1.5 74.5t-5.5 51.5t-11 35t-17 26q-33 38 -89 38q-27 0 -50 -9.5t-40 -28.5q-24 -26 -29 -75t-5 -115v-64.5t3 -59t10 -50t21 -36.5q38 -38 90 -38q56 0 89 38q11 12 18 26.5t10.5 38t5 59t1.5 89.5zM585 356q0 -38 -0.5 -76t-6.5 -74.5t-21 -70
t-43 -63.5q-75 -78 -192 -78t-193 78q-28 29 -42.5 64t-20.5 72t-6.5 72.5t-0.5 65.5v39q0 53 3 91.5t11 68t21.5 52t34.5 43.5q76 78 193 78q116 0 192 -78q37 -38 54 -93t17 -141v-50z" />
    <glyph glyph-name="afii10033" unicode="&#x41f;" horiz-adv-x="685" 
d="M463 0v588h-241v-588h-139v712h519v-712h-139z" />
    <glyph glyph-name="afii10034" unicode="&#x420;" horiz-adv-x="628" 
d="M352 393q47 0 75 26t28 71t-28 71.5t-75 26.5h-130v-195h130zM359 712q51 0 94.5 -16.5t74.5 -46t48.5 -70t17.5 -89.5t-17.5 -89.5t-48.5 -70t-74 -46t-95 -16.5h-137v-268h-139v712h276z" />
    <glyph glyph-name="afii10035" unicode="&#x421;" horiz-adv-x="562" 
d="M519 76q-15 -14 -26 -23.5t-21.5 -16.5t-21 -12.5t-23.5 -10.5q-23 -9 -49 -14t-55 -5q-118 0 -194 78q-26 27 -40.5 58t-21 66t-7.5 75t-1 85v29q0 53 3 91.5t11 68t21.5 52t34.5 43.5q76 78 193 78q60 0 105 -19q25 -11 44 -23t48 -40l-92 -92q-29 29 -51.5 39.5
t-53.5 10.5q-56 0 -89 -37q-13 -15 -20 -35.5t-10.5 -44.5t-4 -50t-0.5 -51v-38q0 -42 1.5 -71.5t5.5 -50.5t10.5 -35t17.5 -26q33 -37 89 -37q31 0 53.5 10.5t51.5 39.5z" />
    <glyph glyph-name="afii10036" unicode="&#x422;" horiz-adv-x="571" 
d="M355 588v-588h-139v588h-186v124h511v-124h-186z" />
    <glyph glyph-name="afii10037" unicode="&#x423;" horiz-adv-x="581" 
d="M325 120q-10 -24 -24.5 -46t-34 -38.5t-44.5 -26t-56 -9.5h-85v124h56q29 0 46.5 11.5t27.5 33.5l21 49l-228 494h145l149 -343l135 343h144z" />
    <glyph glyph-name="afii10038" unicode="&#x424;" horiz-adv-x="797" 
d="M329 538q-75 -4 -110 -48t-35 -125q0 -78 36 -124t109 -51v348zM468 190q73 5 109 51t36 124q0 81 -35 125t-110 48v-348zM752 371q0 -67 -18.5 -121.5t-54.5 -94.5t-89 -62.5t-122 -25.5v-72h-139v72q-69 3 -122 25.5t-89 62.5t-54.5 94.5t-18.5 121.5q0 66 20.5 119
t57.5 90t89.5 57.5t116.5 23.5v56h139v-56q64 -3 116.5 -23.5t89.5 -57.5t57.5 -90t20.5 -119z" />
    <glyph glyph-name="afii10039" unicode="&#x425;" horiz-adv-x="603" 
d="M439 0l-138 248l-137 -248h-159l221 365l-207 347h158l124 -230l125 230h157l-207 -347l222 -365h-159z" />
    <glyph glyph-name="afii10040" unicode="&#x426;" horiz-adv-x="712" 
d="M551 -158v158h-468v712h139v-588h241v588h139v-588h83v-282h-134z" />
    <glyph glyph-name="afii10041" unicode="&#x427;" horiz-adv-x="649" 
d="M427 0v253h-171q-37 0 -71.5 12.5t-61.5 36.5t-43 58t-16 77v275h139v-251q0 -23 7.5 -39t20 -26.5t28.5 -15.5t33 -5h135v337h139v-712h-139z" />
    <glyph glyph-name="afii10042" unicode="&#x428;" horiz-adv-x="988" 
d="M83 0v712h139v-588h203v588h139v-588h202v588h139v-712h-822z" />
    <glyph glyph-name="afii10043" unicode="&#x429;" horiz-adv-x="1014" 
d="M853 -158v158h-770v712h139v-588h203v588h139v-588h202v588h139v-588h82v-282h-134z" />
    <glyph glyph-name="afii10044" unicode="&#x42a;" horiz-adv-x="757" 
d="M584 222q0 44 -28 71t-75 27h-130v-196h130q47 0 75 26.5t28 71.5zM723 222q0 -49 -17 -89.5t-47.5 -70t-73 -46t-93.5 -16.5h-280v588h-182v124h321v-268h141q52 0 94.5 -16.5t73 -46t47 -70t16.5 -89.5z" />
    <glyph glyph-name="afii10045" unicode="&#x42b;" horiz-adv-x="893" 
d="M455 222q0 44 -27.5 71t-75.5 27h-130v-196h130q48 0 75.5 26.5t27.5 71.5zM594 222q0 -49 -16.5 -89.5t-47 -70t-73 -46t-94.5 -16.5h-280v712h139v-268h141q52 0 94.5 -16.5t73 -46t47 -70t16.5 -89.5zM671 0v712h139v-712h-139z" />
    <glyph glyph-name="afii10046" unicode="&#x42c;" horiz-adv-x="628" 
d="M455 222q0 44 -27.5 71t-75.5 27h-130v-196h130q48 0 75.5 26.5t27.5 71.5zM594 222q0 -49 -16.5 -89.5t-47 -70t-73 -46t-94.5 -16.5h-280v712h139v-268h141q52 0 94.5 -16.5t73 -46t47 -70t16.5 -89.5z" />
    <glyph glyph-name="afii10047" unicode="&#x42d;" horiz-adv-x="562" 
d="M239 718q76 0 127 -26.5t81 -71t42.5 -104t12.5 -125.5q1 -16 1 -29v-21.5t-1 -12.5q0 -30 -1 -64t-7.5 -67.5t-20.5 -65.5t-41 -59q-41 -42 -97 -62q-42 -16 -97 -16q-32 0 -57.5 5t-49 15t-45 25.5t-44.5 36.5l87 89q9 -9 22.5 -17t29 -15t31 -11t27.5 -4q55 0 89 37
q22 24 27.5 60t7.5 82h-207v121h206q-2 50 -7.5 73t-12.5 40q-12 29 -40 46t-63 17q-33 0 -56.5 -11t-51.5 -38l-87 93q22 21 44 36t45 24.5t49 14.5t57 5z" />
    <glyph glyph-name="afii10048" unicode="&#x42e;" horiz-adv-x="914" 
d="M716 382q0 69 -7 110t-27 64q-17 19 -40 28.5t-50 9.5t-50 -9.5t-39 -28.5q-21 -24 -28 -67.5t-7 -111.5v-44q0 -39 1.5 -67t5.5 -48.5t11 -35t17 -25.5q34 -39 89 -39q26 0 49.5 10t40.5 29q22 25 28 67t6 116v42zM592 718q116 0 193 -78q40 -41 55 -94t15 -127
q1 -2 1 -11.5v-20v-20t-1 -11.5q0 -47 -1 -86.5t-7.5 -74t-20.5 -65t-41 -58.5q-75 -78 -192 -78q-118 0 -193 78q-44 45 -57 100t-14 126h-107v-298h-139v712h139v-290h108q1 39 5 70t11.5 57t20.5 48t33 43q37 39 85.5 58.5t106.5 19.5z" />
    <glyph glyph-name="afii10049" unicode="&#x42f;" horiz-adv-x="651" 
d="M429 588h-130q-47 0 -75 -26.5t-28 -71.5q0 -44 28 -70.5t75 -26.5h130v195zM429 0v268h-109l-122 -268h-165l147 296q-57 25 -90 75.5t-33 118.5q0 49 17.5 89.5t48.5 70t74.5 46t94.5 16.5h276v-712h-139z" />
    <glyph glyph-name="afii10065" unicode="&#x430;" horiz-adv-x="534" 
d="M234 220q-35 0 -54 -15t-19 -44q0 -60 82 -60q51 0 72.5 21t21.5 70v28h-103zM340 0v45q-17 -17 -28 -24.5t-26 -13.5q-30 -12 -74 -12q-84 0 -130 42.5t-46 119.5q0 71 47.5 111.5t130.5 40.5h123v26q0 44 -23 63t-76 19q-17 0 -30 -2t-24.5 -7t-21.5 -13t-22 -21
l-83 81q11 11 20 19t16.5 14t15.5 10.5t18 9.5q44 19 115 19q225 0 225 -184v-343h-127z" />
    <glyph glyph-name="afii10066" unicode="&#x431;" 
d="M276 402q-31 0 -48 -14t-25.5 -36t-10 -49t-1.5 -53q0 -75 20.5 -107t64.5 -32q30 0 47.5 13.5t26 34.5t10.5 47t2 52t-2 51.5t-10.5 46t-26 33.5t-47.5 13zM299 517q57 0 94 -19t59 -53t31 -81.5t9 -105.5q0 -57 -10.5 -105.5t-35 -84t-66 -55t-104.5 -19.5t-104.5 20.5
t-66 56t-34.5 83t-10 102.5v48q0 68 1 124.5t9 102t27 81t54 61.5q28 21 68 31.5t81.5 15.5t79.5 6.5t63 3.5v-116q-21 -2 -50.5 -2.5t-62 -4.5t-63.5 -12t-55 -25q-18 -13 -28 -29.5t-15 -32.5t-6 -31t-2 -25h3q16 23 49.5 44t84.5 21z" />
    <glyph glyph-name="afii10067" unicode="&#x432;" horiz-adv-x="550" 
d="M369 157q0 29 -17 44.5t-48 15.5h-103v-121h103q31 0 48 16.5t17 44.5zM201 425v-111h97q63 0 63 56q0 55 -63 55h-97zM498 150q0 -69 -43 -109.5t-117 -40.5h-266v521h257q74 0 117.5 -38.5t43.5 -104.5q0 -72 -66 -110q38 -20 56 -48t18 -70z" />
    <glyph glyph-name="afii10068" unicode="&#x433;" horiz-adv-x="434" 
d="M206 406v-406h-130v521h345v-115h-215z" />
    <glyph glyph-name="afii10069" unicode="&#x434;" horiz-adv-x="591" 
d="M372 406h-116v-16.5v-21.5t-0.5 -20.5t-0.5 -14.5q-3 -73 -15.5 -122.5t-29.5 -95.5h162v291zM445 -128v128h-303v-128h-123v243h56q13 35 22.5 69t16.5 74.5t10.5 92t3.5 121.5v49h374v-406h66v-243h-123z" />
    <glyph glyph-name="afii10070" unicode="&#x435;" horiz-adv-x="548" 
d="M373 309q-3 54 -28.5 82t-70.5 28t-71 -28.5t-28 -81.5h198zM175 220q6 -116 119 -116q33 0 60 11q14 6 25 13.5t28 24.5l79 -77q-15 -14 -26 -23.5t-21 -16.5t-20.5 -12.5t-22.5 -10.5q-23 -9 -49.5 -14t-57.5 -5q-242 0 -242 268q0 61 16 110t45 83.5t71 53t95 18.5
q52 0 94 -17.5t71.5 -50t45.5 -78.5t16 -103v-58h-326z" />
    <glyph glyph-name="afii10072" unicode="&#x436;" horiz-adv-x="768" 
d="M610 0l-110 201l-51 -66v-135h-130v135l-51 66l-110 -201h-151l176 303l-162 218h151l147 -221v221h130v-221l148 221h150l-162 -218l176 -303h-151z" />
    <glyph glyph-name="afii10073" unicode="&#x437;" horiz-adv-x="496" 
d="M444 154q0 -36 -16 -65.5t-43.5 -50.5t-63.5 -32.5t-76 -11.5q-62 0 -121.5 16t-106.5 58l75 82q28 -25 61.5 -35.5t70.5 -10.5q17 0 33.5 3.5t29 11t20.5 18.5t8 26q0 29 -20 42.5t-55 13.5h-79v93h77q32 0 51 15.5t19 41.5q0 27 -24 40t-64 13q-29 0 -58 -9t-55 -27
l-72 80q45 35 98.5 48t112.5 13q37 0 71.5 -9t61 -27t42 -44.5t15.5 -60.5q0 -37 -19.5 -67t-51.5 -45q35 -15 57 -46.5t22 -73.5z" />
    <glyph glyph-name="afii10074" unicode="&#x438;" horiz-adv-x="589" 
d="M386 0v318l-183 -318h-131v521h131v-310l183 310h131v-521h-131z" />
    <glyph glyph-name="afii10075" unicode="&#x439;" horiz-adv-x="589" 
d="M386 0v318l-183 -318h-131v521h131v-310l183 310h131v-521h-131zM457 727q-8 -71 -48 -109.5t-115 -38.5t-115 38.5t-47 109.5h88q5 -27 23 -42t52 -15t51.5 15t22.5 42h88z" />
    <glyph glyph-name="afii10076" unicode="&#x43a;" horiz-adv-x="558" 
d="M388 0l-131 212l-54 -62v-150h-130v521h130v-219l176 219h158l-191 -215l200 -306h-158z" />
    <glyph glyph-name="afii10077" unicode="&#x43b;" horiz-adv-x="577" 
d="M374 0v406h-122l-6 -203q-3 -104 -46 -153.5t-118 -49.5h-69v115h19q15 0 30 5t27 17.5t19.5 34.5t8.5 55l8 294h379v-521h-130z" />
    <glyph glyph-name="afii10078" unicode="&#x43c;" horiz-adv-x="677" 
d="M474 0v301l-98 -193h-74l-99 193v-301h-131v521h129l138 -274l137 274h128v-521h-130z" />
    <glyph glyph-name="afii10079" unicode="&#x43d;" horiz-adv-x="573" 
d="M370 0v209h-167v-209h-131v521h131v-197h167v197h131v-521h-131z" />
    <glyph glyph-name="afii10080" unicode="&#x43e;" 
d="M362 261q0 25 -2 51.5t-11 48t-27.5 35.5t-50.5 14q-33 0 -51.5 -15t-27 -38.5t-10 -51t-1.5 -52.5q0 -75 21 -108.5t69 -33.5q33 0 51 14t27 35.5t11 48t2 52.5zM492 263q0 -40 -3 -70.5t-10 -54.5t-18.5 -43.5t-27.5 -36.5q-61 -64 -162 -64q-100 0 -161 64
q-17 17 -28 36.5t-18 43.5t-10 54t-3 69t3 68.5t10 53.5t18.5 43.5t27.5 36.5q61 64 161 64q101 0 162 -64q32 -34 45.5 -79t13.5 -121z" />
    <glyph glyph-name="afii10081" unicode="&#x43f;" horiz-adv-x="573" 
d="M370 0v406h-167v-406h-131v521h429v-521h-131z" />
    <glyph glyph-name="afii10082" unicode="&#x440;" horiz-adv-x="560" 
d="M379 262q0 82 -19.5 115t-68.5 33q-34 0 -52 -15t-26 -38.5t-9 -51t-1 -52.5q0 -77 20 -109.5t68 -32.5q49 0 68.5 34t19.5 117zM199 472q30 30 57.5 42.5t70.5 12.5q39 0 72.5 -12t56.5 -35q33 -33 44 -88q3 -14 4.5 -27t2.5 -28t1.5 -33.5t0.5 -44.5q0 -46 -3 -80
t-9 -60t-16 -44.5t-25 -33.5q-23 -23 -56.5 -35t-72.5 -12q-41 0 -68.5 12t-55.5 40v-237h-130v712h126v-49z" />
    <glyph glyph-name="afii10083" unicode="&#x441;" horiz-adv-x="480" 
d="M452 65q-23 -23 -38 -33t-36 -19q-42 -19 -97 -19q-112 0 -173 70t-61 201q0 124 61.5 193t172.5 69q55 0 97 -18q21 -9 36 -19t38 -33l-88 -88q-23 23 -41 32t-43 9q-103 0 -103 -149q0 -150 103 -150q26 0 43.5 9t40.5 32z" />
    <glyph glyph-name="afii10084" unicode="&#x442;" horiz-adv-x="456" 
d="M295 406v-406h-131v406h-153v115h434v-115h-150z" />
    <glyph glyph-name="afii10085" unicode="&#x443;" horiz-adv-x="494" 
d="M267 -84q-21 -57 -56 -82t-95 -25h-51v117h30q29 0 42 9.5t23 37.5l22 64l-178 484h137l108 -322l104 322h137z" />
    <glyph glyph-name="afii10086" unicode="&#x444;" horiz-adv-x="726" 
d="M300 410q-63 -1 -93.5 -36.5t-30.5 -110.5q0 -149 124 -152v299zM550 263q0 75 -30.5 110.5t-93.5 36.5v-299q124 3 124 152zM681 264q0 -133 -61 -199t-192 -70v-186h-130v186q-131 4 -192 70t-61 199q0 132 60.5 195t192.5 67v186h130v-186q132 -4 192.5 -67t60.5 -195
z" />
    <glyph glyph-name="afii10087" unicode="&#x445;" horiz-adv-x="527" 
d="M359 0l-96 156l-95 -156h-156l180 266l-173 255h156l88 -149l89 149h156l-173 -255l180 -266h-156z" />
    <glyph glyph-name="afii10088" unicode="&#x446;" horiz-adv-x="594" 
d="M447 -128v128h-375v521h131v-406h167v406h131v-406h70v-243h-124z" />
    <glyph glyph-name="afii10089" unicode="&#x447;" horiz-adv-x="545" 
d="M342 0v176h-128q-35 0 -63.5 10t-49.5 28.5t-32.5 44t-11.5 56.5v206h131v-169q0 -34 19 -48t46 -14h89v231h130v-521h-130z" />
    <glyph glyph-name="afii10090" unicode="&#x448;" horiz-adv-x="822" 
d="M72 0v521h131v-406h143v406h130v-406h143v406h130v-521h-677z" />
    <glyph glyph-name="afii10091" unicode="&#x449;" horiz-adv-x="843" 
d="M696 -128v128h-624v521h131v-406h143v406h130v-406h143v406h130v-406h70v-243h-123z" />
    <glyph glyph-name="afii10092" unicode="&#x44a;" horiz-adv-x="622" 
d="M291 231v-129h100q32 0 50.5 17.5t18.5 47.5q0 29 -18.5 46.5t-50.5 17.5h-100zM588 167q0 -37 -12.5 -67.5t-35.5 -52.5t-54.5 -34.5t-70.5 -12.5h-251v406h-152v115h283v-188h120q39 0 70.5 -12t54.5 -34t35.5 -52.5t12.5 -67.5z" />
    <glyph glyph-name="afii10093" unicode="&#x44b;" horiz-adv-x="763" 
d="M199 231v-129h98q32 0 50.5 17.5t18.5 47.5q0 29 -18.5 46.5t-50.5 17.5h-98zM495 167q0 -37 -12.5 -67.5t-35.5 -52.5t-55 -34.5t-71 -12.5h-249v521h131v-188h118q39 0 71 -12t55 -34t35.5 -52.5t12.5 -67.5zM556 0v521h131v-521h-131z" />
    <glyph glyph-name="afii10094" unicode="&#x44c;" horiz-adv-x="529" 
d="M199 231v-129h100q32 0 50 17.5t18 47.5q0 29 -18 46.5t-50 17.5h-100zM496 167q0 -37 -12.5 -67.5t-35.5 -52.5t-55 -34.5t-70 -12.5h-251v521h131v-188h120q39 0 70.5 -12t54.5 -34t35.5 -52.5t12.5 -67.5z" />
    <glyph glyph-name="afii10095" unicode="&#x44d;" horiz-adv-x="480" 
d="M199 527q112 0 173 -69t61 -194q0 -131 -60.5 -200.5t-173.5 -69.5q-55 0 -93 16.5t-78 53.5l87 86q23 -23 41 -32.5t44 -9.5q49 0 73.5 30.5t29.5 80.5h-153v89h153q-7 48 -32 76.5t-72 28.5q-26 0 -44 -10t-40 -32l-87 86q40 37 78 53.5t93 16.5z" />
    <glyph glyph-name="afii10096" unicode="&#x44e;" horiz-adv-x="774" 
d="M502 410q-45 0 -67 -32q-13 -17 -18 -44t-5 -71q0 -45 5 -73t17 -46q22 -33 68 -33q47 0 69 34q12 17 17 45t5 72q0 45 -5.5 72t-17.5 45q-22 31 -68 31zM723 262q0 -39 -3 -69.5t-10 -54.5t-18.5 -43.5t-27.5 -36.5q-61 -64 -162 -64q-83 0 -139 45q-72 56 -79 172h-81
v-211h-131v521h131v-199h81q11 108 78 160q57 45 140 45q106 0 165 -68q30 -34 43 -79t13 -118z" />
    <glyph glyph-name="afii10097" unicode="&#x44f;" horiz-adv-x="545" 
d="M345 415h-102q-32 0 -50 -18.5t-18 -47.5t18 -46.5t50 -17.5h102v130zM343 0v179h-70l-86 -179h-152l110 207q-45 17 -71.5 55.5t-26.5 92.5q0 36 13 66t36 52.5t55 35t70 12.5h252v-521h-130z" />
    <glyph glyph-name="afii10050" unicode="&#x490;" horiz-adv-x="561" 
d="M225 588v-588h-139v712h314v158h134v-282h-309z" />
    <glyph glyph-name="afii10098" unicode="&#x491;" horiz-adv-x="434" 
d="M206 406v-406h-130v521h222v128h123v-243h-215z" />
    <glyph glyph-name="brokenbar" unicode="&#xa6;" horiz-adv-x="353" 
d="M110 -74v350h130v-350h-130zM110 436v350h130v-350h-130z" />
    <glyph glyph-name="hyphenminus" horiz-adv-x="426" 
d="M59 225v121h308v-121h-308z" />
  </font>
</defs>
</svg>
